<?xml version="1.0" standalone="no"?>
<!DOCTYPE svg PUBLIC "-//W3C//DTD SVG 20010904//EN"
 "http://www.w3.org/TR/2001/REC-SVG-20010904/DTD/svg10.dtd">
<svg version="1.0" xmlns="http://www.w3.org/2000/svg"
 width="300.000000pt" height="305.000000pt" viewBox="0 0 300.000000 305.000000"
 preserveAspectRatio="xMidYMid meet">
<metadata>
Created by potrace 1.16, written by Peter Selinger 2001-2019
</metadata>
<g transform="translate(0.000000,305.000000) scale(0.100000,-0.100000)"
fill="#000000" stroke="none">
<path d="M1173 2969 c-101 -15 -113 -22 -113 -68 0 -23 5 -41 13 -44 7 -3 19
-31 26 -63 12 -50 11 -58 -3 -66 -20 -11 -21 -42 -2 -58 8 -6 30 -13 48 -15
18 -1 46 -8 61 -14 39 -15 131 -14 170 3 48 20 78 59 102 131 13 36 26 67 30
68 4 1 13 -19 19 -44 20 -76 60 -134 106 -153 51 -20 139 -21 186 -1 20 8 40
12 45 10 12 -8 69 23 69 37 0 6 -7 19 -16 29 -20 23 -9 104 18 131 13 13 18
30 16 56 -3 35 -5 38 -53 50 -32 9 -95 13 -175 11 -235 -4 -305 -4 -395 2 -49
4 -118 3 -152 -2z m147 -67 c0 -4 -31 -39 -70 -77 l-69 -69 -11 28 c-17 47
-13 93 12 110 23 17 138 23 138 8z m528 -42 c6 -35 -18 -107 -44 -135 -20 -21
-32 -25 -82 -25 -32 0 -62 3 -66 7 -9 9 165 184 179 180 5 -2 12 -14 13 -27z"/>
<path d="M1000 2085 c-204 -61 -362 -149 -471 -262 -69 -71 -102 -122 -129
-202 -19 -58 -20 -83 -20 -654 0 -448 3 -596 12 -605 18 -18 382 -17 397 1 8
10 12 184 13 588 l3 574 68 -270 68 -270 -65 -295 c-36 -162 -66 -306 -66
-320 0 -22 26 -39 232 -157 127 -72 237 -129 245 -126 8 3 55 86 104 185 79
158 92 179 112 176 18 -2 40 -39 112 -180 75 -149 94 -178 112 -178 19 0 442
236 467 260 5 5 -18 131 -57 309 -37 165 -67 312 -67 326 0 31 117 502 130
524 6 10 10 -209 10 -566 l0 -583 23 -5 c12 -3 103 -4 202 -3 l180 3 3 605 c2
586 2 606 -18 666 -39 116 -127 220 -261 310 -100 66 -337 164 -399 164 -13 0
-41 -69 -135 -337 -65 -186 -123 -349 -130 -361 -10 -21 -17 0 -59 170 -27
106 -49 194 -50 195 -1 2 -17 -3 -34 -9 l-32 -12 0 -401 c0 -253 -4 -394 -10
-384 -8 15 -21 49 -95 264 -13 39 -34 95 -45 125 -19 50 -88 242 -222 615 -27
77 -50 141 -51 141 -1 1 -36 -8 -77 -21z m414 -1267 c24 -34 20 -73 -10 -97
-15 -12 -35 -21 -46 -21 -26 0 -68 44 -68 73 0 59 91 92 124 45z m278 5 c28
-25 24 -77 -8 -102 -33 -26 -55 -26 -82 -3 -32 26 -37 63 -12 95 25 32 73 37
102 10z"/>
</g>
</svg>
